# Blender v2.80 (sub 19) OBJ File: ''
# www.blender.org
mtllib Pinchos.mtl
o Cone_Cone.002
v 0.500000 0.000000 -1.000000
v 0.809017 0.000000 -0.904508
v 1.000000 0.000000 -0.654508
v 1.000000 0.000000 -0.345491
v 0.809017 0.000000 -0.095491
v 0.500000 0.000000 0.000000
v 0.190983 0.000000 -0.095492
v 0.500000 1.000000 -0.500000
v 0.000000 0.000000 -0.345491
v 0.000000 0.000000 -0.654509
v 0.190983 0.000000 -0.904509
vt 0.250000 0.490000
vt 0.250000 0.250000
vt 0.391068 0.444164
vt 0.478254 0.324164
vt 0.478254 0.175836
vt 0.391068 0.055836
vt 0.250000 0.010000
vt 0.108932 0.055836
vt 0.021746 0.175836
vt 0.021746 0.324164
vt 0.108932 0.444164
vn 0.2664 0.4311 -0.8621
vn 0.7133 0.4408 -0.5449
vn 0.8944 0.4472 0.0000
vn 0.7133 0.4408 0.5449
vn 0.2664 0.4311 0.8621
vn -0.2664 0.4311 0.8621
vn -0.7133 0.4408 0.5449
vn -0.8944 0.4472 0.0000
vn -0.7133 0.4408 -0.5449
vn -0.2664 0.4311 -0.8621
usemtl None
s off
f 1/1/1 8/2/1 2/3/1
f 2/3/2 8/2/2 3/4/2
f 3/4/3 8/2/3 4/5/3
f 4/5/4 8/2/4 5/6/4
f 5/6/5 8/2/5 6/7/5
f 6/7/6 8/2/6 7/8/6
f 7/8/7 8/2/7 9/9/7
f 9/9/8 8/2/8 10/10/8
f 10/10/9 8/2/9 11/11/9
f 11/11/10 8/2/10 1/1/10
